<svg width="115" height="26" viewBox="0 0 115 26" fill="none" xmlns="http://www.w3.org/2000/svg">
<g clip-path="url(#clip0_1_1531)">
<path d="M18.7313 6.48461C18.9351 5.83615 19.1389 5.41002 19.5835 4.87272C19.7688 4.65039 20.1208 4.20574 20.3246 3.61286C20.6025 2.77912 20.7137 1.79716 20.7137 1.686C20.7137 1.50072 20.6581 1.38956 20.4543 1.38956C20.2505 1.38956 20.2135 1.4822 20.1949 1.72305C20.1764 1.96391 19.9911 3.42758 19.5835 4.02046C19.2686 4.48365 18.9351 4.83567 18.8054 5.03947C18.6572 3.24231 18.3237 2.20477 17.9902 1.46367C17.6937 0.815209 17.4343 0.370549 17.2861 0.14822C17.2491 0.0741099 17.1564 0 17.0453 0C16.9526 0 16.7674 0.111165 16.7674 0.296439C16.7674 0.426132 17.2491 0.907846 17.7123 2.2233C18.0458 3.13114 18.194 4.07604 18.2125 4.27985C18.2496 4.70598 18.231 5.09505 18.2496 5.4656C18.2496 5.4656 17.9531 4.78009 17.3788 4.22426C16.4339 3.27936 16.4709 3.79813 15.7483 2.8347C15.2111 2.13066 15.3222 1.55631 14.9702 1.55631C14.7664 1.55631 14.7293 1.74158 14.7293 1.81569C14.7293 2.0936 15.0814 2.87176 15.4334 3.26083C15.9522 3.87224 16.4894 3.94635 17.0082 4.5207C17.3973 4.94683 17.879 5.87321 17.879 6.92927C17.879 7.8927 17.6937 8.17061 17.5455 8.52264C17.3973 8.87466 16.6191 10.3754 15.9892 11.135C15.3593 11.8946 14.0623 13.3583 13.3768 13.8771C13.4509 13.3212 13.488 13.0433 13.488 12.8025C13.488 12.5431 13.5065 12.0429 13.2101 12.0429C12.9878 12.0429 12.9507 12.154 12.9507 12.3578C12.9507 12.5616 13.0433 13.1916 12.6728 13.8585C12.3208 14.5255 12.2467 14.7664 11.8576 15.0814C11.4685 15.3963 11.098 15.6372 10.8015 15.841C10.6718 15.8039 10.5792 15.7854 10.4124 15.7854C10.3754 15.7854 10.3569 15.7854 10.3198 15.7854C10.3013 15.7854 10.2642 15.7854 10.2272 15.7854C10.0604 15.7854 9.96778 15.8225 9.83809 15.841C9.54165 15.6372 9.1711 15.3778 8.78202 15.0814C8.39294 14.7664 8.31883 14.5255 7.96681 13.8585C7.61479 13.1916 7.6889 12.5616 7.6889 12.3578C7.6889 12.154 7.67037 12.0429 7.42951 12.0429C7.13308 12.0429 7.1516 12.5431 7.1516 12.8025C7.1516 13.0619 7.18866 13.3212 7.26277 13.8771C6.57725 13.3768 5.28033 11.9132 4.65039 11.135C4.02046 10.3569 3.27936 8.87466 3.13114 8.52264C2.98292 8.17061 2.79765 7.8927 2.79765 6.92927C2.79765 5.87321 3.27936 4.96536 3.66844 4.5207C4.18721 3.94635 4.7245 3.87224 5.24327 3.26083C5.57677 2.85323 5.94732 2.07508 5.94732 1.81569C5.94732 1.74158 5.91026 1.55631 5.70646 1.55631C5.35444 1.55631 5.44708 2.11213 4.92831 2.8347C4.20574 3.79813 4.24279 3.29789 3.29789 4.22426C2.74207 4.78009 2.4271 5.4656 2.4271 5.4656C2.44563 5.09505 2.4271 4.70598 2.46415 4.27985C2.48268 4.07604 2.6309 3.13114 2.9644 2.2233C3.44611 0.926373 3.9093 0.426132 3.9093 0.296439C3.9093 0.111165 3.74255 0 3.63138 0C3.52022 0 3.42758 0.0741099 3.39053 0.129692C3.24231 0.352022 2.98292 0.778154 2.68648 1.44514C2.35299 2.16771 2.01949 3.20525 1.87127 5.02094C1.74158 4.79861 1.42662 4.46512 1.09312 4.00193C0.722571 3.42758 0.537297 1.94538 0.518769 1.70453C0.500242 1.46367 0.463187 1.38956 0.259385 1.38956C0.0555824 1.38956 0 1.50072 0 1.686C0 1.79716 0.111165 2.77912 0.389077 3.61286C0.592879 4.18721 0.944901 4.65039 1.13018 4.87272C1.59336 5.41002 1.77864 5.85468 1.98244 6.48461C2.0936 6.81811 2.20477 7.61479 2.46415 8.44852C2.68648 9.18962 3.03851 9.94925 3.27936 10.4495C2.89029 10.4495 2.35299 10.4124 1.79716 10.0604C1.16723 9.65281 1.11165 8.50411 1.09312 8.07798C1.07459 7.65184 1.16723 7.18866 1.18576 6.9478C1.20429 6.70694 1.22281 6.52167 0.944901 6.52167C0.574352 6.52167 0.574352 7.33688 0.574352 8.04092C0.555824 8.96729 0.685516 9.89367 1.29692 10.468C2.05655 11.1906 2.87176 11.0609 3.53875 11.3573C3.7796 11.4685 4.00193 11.6538 4.26132 12.0058C4.48365 12.3208 4.98389 12.8951 5.81763 13.803C4.50217 13.7659 3.79813 13.6362 3.01998 13.3768C2.29741 13.136 2.11213 12.4505 2.07508 12.3393C2.00097 12.154 1.94538 12.0614 1.77864 12.0614C1.59336 12.0614 1.51925 12.2281 1.51925 12.3393C1.51925 12.4505 1.79716 13.4139 2.98292 13.9327C3.79813 14.2847 4.37248 14.3773 5.92879 14.5255C6.05848 14.5441 6.72547 14.7108 6.76253 14.7108C6.96633 14.7664 7.04044 14.8961 7.72595 15.4519C5.68793 14.8405 4.65039 15.0443 4.03899 15.1184C4.42806 16.1374 4.92831 16.9156 5.66941 17.175C6.96633 17.6381 8.11503 17.1194 8.11503 18.3422C8.11503 18.6016 8.00387 19.1203 8.00387 19.6762C8.00387 21.4363 9.15257 21.1028 9.15257 23.2334C9.15257 24.1228 9.59723 24.6045 10.2642 24.6601C10.3013 24.6601 10.3198 24.6601 10.3569 24.6601C10.3754 24.6601 10.4124 24.6601 10.4495 24.6601C11.1165 24.586 11.5611 24.1042 11.5611 23.2334C11.5611 21.0843 12.7098 21.4363 12.7098 19.6762C12.7098 19.1203 12.5987 18.6016 12.5987 18.3422C12.5987 17.1379 13.7474 17.6381 15.0443 17.175C15.8039 16.9156 16.2856 16.1374 16.6747 15.1184C16.0633 15.0258 15.0258 14.8405 12.9878 15.4519C13.6733 14.8961 13.7474 14.7664 13.9512 14.7108C13.9882 14.6923 14.6552 14.5255 14.7849 14.5255C16.3412 14.3773 16.9156 14.3032 17.7308 13.9327C18.9165 13.4139 19.1945 12.4319 19.1945 12.3393C19.1945 12.2467 19.1203 12.0614 18.9351 12.0614C18.7498 12.0614 18.7127 12.1355 18.6386 12.3393C18.6016 12.4319 18.4163 13.136 17.6937 13.3768C16.9156 13.6362 16.2115 13.7659 14.8961 13.803C15.7298 12.8951 16.2301 12.3208 16.4524 12.0058C16.7118 11.6538 16.9156 11.4685 17.175 11.3573C17.842 11.0794 18.6572 11.1906 19.4168 10.468C20.0282 9.89367 20.1579 8.96729 20.1394 8.04092C20.1208 7.33688 20.1394 6.52167 19.7688 6.52167C19.4909 6.52167 19.4909 6.72547 19.528 6.9478C19.565 7.18866 19.6391 7.65184 19.6206 8.07798C19.6021 8.50411 19.5465 9.65281 18.9165 10.0604C18.3607 10.4124 17.8234 10.431 17.4343 10.4495C17.6752 9.94925 18.0272 9.18962 18.2496 8.44852C18.5089 7.61479 18.6201 6.81811 18.7313 6.48461Z" fill="white"/>
<path d="M32.7935 6.54022H30.5332L25.1973 20.7693H27.2353L28.699 16.4709H34.2757L35.7579 20.7693H37.8515L32.7935 6.54022ZM29.3104 14.9517L31.5337 8.74499L33.7014 14.9517H29.3104Z" fill="white"/>
<path d="M40.9641 6.54022H39.1484V20.7693H40.9641V6.54022Z" fill="white"/>
<path d="M45.0217 6.54022H43.2061V20.7693H45.0217V6.54022Z" fill="white"/>
<path d="M97.0098 6.54022H95.1941V20.7693H97.0098V6.54022Z" fill="white"/>
<path d="M100.604 6.54016H98.7881V20.7693H100.604V6.54016Z" fill="white"/>
<path d="M51.0803 19.6762C48.7829 19.6762 48.3012 17.6196 48.3012 16.1374C48.3012 16.1374 54.6932 16.1374 55.7492 16.1374C55.7492 13.7659 55.5825 10.1901 51.1544 10.1901C47.3007 10.1901 46.4114 13.6733 46.4114 15.7854C46.4114 18.1569 47.3563 21.1213 51.1544 21.1213C55.1563 21.1213 55.6936 17.5455 55.6936 17.5455C54.6932 17.5455 53.915 17.5455 53.915 17.5455C53.915 17.5455 53.3777 19.6762 51.0803 19.6762ZM51.1544 11.6908C53.7668 11.6908 54.0076 14.1921 54.0076 14.7849C53.0627 14.7849 48.3012 14.7849 48.3012 14.7849C48.3012 14.3218 48.6161 11.6908 51.1544 11.6908Z" fill="white"/>
<path d="M62.4193 10.1901C63.2901 10.1901 65.8469 10.3939 65.8469 13.451C65.8469 16.508 65.8469 20.7693 65.8469 20.7693H64.0127C64.0127 20.7693 64.0127 14.5441 64.0127 13.9327C64.0127 13.3213 63.9015 11.7279 61.9747 11.7279C60.0478 11.7279 59.1214 13.3768 59.1214 14.5626C59.1214 15.7484 59.1214 17.4529 59.1214 20.7693H57.3613V10.3754C57.3613 10.3754 58.158 10.431 59.0288 10.3754C59.0288 11.2277 59.0288 11.8205 59.0288 11.8205C60.1034 10.6904 60.9742 10.1901 62.4193 10.1901Z" fill="white"/>
<path d="M70.9788 16.193H72.7759C73.165 18.1199 73.7208 19.5465 76.6482 19.5465C78.6677 19.5465 80.1499 18.8054 80.1499 17.0638C80.1499 13.0619 71.4419 15.9336 71.4419 10.4865C71.4419 6.54019 75.2771 6.18817 76.4629 6.18817C77.6486 6.18817 81.8359 6.65136 81.6135 10.7089C80.5575 10.7089 79.7793 10.7089 79.7793 10.7089C79.7793 10.7089 79.7978 7.85564 76.4258 7.85564C73.6838 7.85564 73.2762 9.61575 73.2762 10.1901C73.2762 13.9697 82.0211 11.0238 82.0211 16.8044C82.0211 19.7318 79.7793 21.1584 76.4444 21.1584C73.1094 21.1584 70.9788 19.3427 70.9788 16.193Z" fill="white"/>
<path d="M88.4131 10.0604C86.2268 10.0604 83.5959 11.6723 83.5959 15.8039C83.5959 19.1574 85.4116 21.1584 88.4131 21.1584C91.396 21.1584 93.2302 19.1204 93.2302 15.2481C93.2302 11.3759 90.5993 10.0604 88.4131 10.0604ZM88.4131 19.6206C86.6159 19.6206 85.3746 18.2496 85.3746 15.6001C85.3746 13.1916 86.7086 11.5797 88.4131 11.5797C89.8582 11.5797 91.3775 12.5061 91.3775 15.3963C91.396 18.2866 90.2288 19.6206 88.4131 19.6206Z" fill="white"/>
<path d="M102.031 10.431H104.032L106.811 18.6942L109.572 10.431H111.499C111.499 10.431 108.368 19.2871 107.904 20.547C107.608 21.3807 106.774 23.5114 106.089 24.2339C105.57 24.7898 104.829 25.0121 104.069 25.0121C103.236 25.0121 102.958 24.8639 102.958 24.8639V23.2705C102.958 23.2705 103.439 23.4373 103.977 23.4373C104.514 23.4373 104.977 23.3446 105.885 21.0102C104.866 18.3793 102.031 10.431 102.031 10.431Z" fill="white"/>
<path d="M112.202 10.1901V8.57823H111.609V8.3559H113.036V8.57823H112.443V10.1901H112.202Z" fill="white"/>
<path d="M113.276 10.1901V8.37439H113.628L114.055 9.65278C114.092 9.76395 114.129 9.85659 114.147 9.9307C114.166 9.85659 114.203 9.76395 114.24 9.63426L114.666 8.37439H114.981V10.1901H114.759V8.67083L114.24 10.1901H114.017L113.499 8.63377V10.1901H113.276Z" fill="white"/>
</g>
<defs>
<clipPath id="clip0_1_1531">
<rect width="115" height="25.0306" fill="white"/>
</clipPath>
</defs>
</svg>
