<svg width="116" height="25" viewBox="0 0 116 25" fill="none" xmlns="http://www.w3.org/2000/svg">
<g clip-path="url(#clip0_1_1476)">
<path fill-rule="evenodd" clip-rule="evenodd" d="M83.8954 21.5866H85.708V4H83.8954V21.5866ZM72.4005 16.1311L74.5803 13.668L80.5685 21.5867H82.8628L75.9567 12.1259L82.8628 4.32238H80.4767L72.4005 13.5299V4.32238H70.4046V21.5867H72.4005V16.1311ZM49.4799 21.5866H51.2925V9.47848H49.4799V21.5866ZM49.457 7.36078H51.3155V5.24308H49.457V7.36078ZM55.3074 21.5867H53.4951V9.47848H55.3074V11.5042C55.5369 10.8368 56.5924 9.20236 59.0931 9.20236C62.4658 9.20236 64.0489 11.6883 64.0489 14.75V21.5867H62.2136V14.7961C62.2136 12.5171 60.9975 10.9287 58.7949 10.9287C56.6153 10.9287 55.3074 12.5631 55.3074 14.888V21.5867ZM97.6614 14.3815H89.3789C89.6772 12.6551 91.1914 10.8828 93.5316 10.8828C95.9407 10.8828 97.2943 12.5631 97.6614 14.3815ZM87.4287 15.5326C87.4287 19.1236 90.0443 21.8629 93.5775 21.8629C97.2024 21.8629 98.9922 19.3537 99.4511 17.6964H97.6384C97.1565 18.7093 95.9866 20.1595 93.5775 20.1595C91.1684 20.1595 89.4018 18.3178 89.264 15.9929H99.6115C99.7034 12.0338 97.065 9.20236 93.5316 9.20236C90.0672 9.20236 87.4287 11.9646 87.4287 15.5326ZM101.379 21.5866H103.191V9.47848H101.379V21.5866ZM101.356 7.36078H103.214V5.24308H101.356V7.36078ZM105.394 21.5867H107.206V14.888C107.206 12.5631 108.514 10.9287 110.693 10.9287C112.896 10.9287 114.112 12.5171 114.112 14.7961V21.5867H115.947V14.75C115.947 11.6883 114.364 9.20236 110.992 9.20236C108.491 9.20236 107.435 10.8368 107.206 11.5042V9.47848H105.394V21.5867ZM3.06498 12.9775C3.06498 17.0057 5.95576 20.0213 9.74144 20.0213C13.2747 20.0213 15.0183 17.8345 15.5691 16.7527H17.5652C17.0604 18.4099 14.6742 21.8859 9.74144 21.8859C4.76271 21.8859 1 18.1108 1 12.9545C1 7.8673 4.80863 4.02304 9.74144 4.02304C14.6742 4.02304 17.0604 7.4299 17.611 9.20236H15.5462C14.9267 8.07448 13.2058 5.88766 9.74144 5.88766C5.95576 5.88766 3.06498 8.9032 3.06498 12.9775ZM24.8156 10.9287C27.3163 10.9287 29.1519 12.9314 29.1519 15.5326C29.1519 18.1338 27.3163 20.1365 24.8156 20.1365C22.2919 20.1365 20.4564 18.1338 20.4564 15.5326C20.4564 12.9084 22.2919 10.9287 24.8156 10.9287ZM18.598 15.5326C18.598 19.1467 21.3053 21.8629 24.7467 21.8629C27.4771 21.8629 28.7389 20.1365 29.1289 19.3076V21.5867H30.9414V9.47848H29.1289V11.7575C28.7618 10.9518 27.4771 9.20236 24.7467 9.20236C21.3053 9.20236 18.598 11.9186 18.598 15.5326ZM33.1444 21.5866H34.9568V4H33.1444V21.5866ZM45.9924 9.47848L42.1608 19.7221L38.3292 9.47848H36.3333L41.0137 21.5869H43.3082L47.9885 9.47848H45.9924Z" fill="white"/>
</g>
<defs>
<clipPath id="clip0_1_1476">
<rect width="115" height="25" fill="white" transform="translate(0.5)"/>
</clipPath>
</defs>
</svg>
