<svg width="872" height="127" viewBox="0 0 872 127" fill="none" xmlns="http://www.w3.org/2000/svg">
<g style="mix-blend-mode:luminosity" opacity="0.1">
<mask id="path-1-outside-1_1_1422" maskUnits="userSpaceOnUse" x="-4" y="-4" width="880" height="135" fill="black">
<rect fill="white" x="-4" y="-4" width="880" height="135"/>
<path d="M0.485796 99V0.0909061H69.4517V19.5057H24.392V39.7898H65.9261V59.2528H24.392V79.5852H69.4517V99H0.485796ZM104.514 24.8182L116.733 49.2557L129.386 24.8182H153.196L132.477 61.9091L153.969 99H130.352L116.733 74.3693L103.452 99H79.4972L101.037 61.9091L80.5597 24.8182H104.514ZM163.978 126.818V24.8182H187.353V37.5199H188.077C189.043 35.2661 190.412 33.0928 192.183 31C193.986 28.9072 196.272 27.2008 199.04 25.8807C201.842 24.5284 205.19 23.8523 209.086 23.8523C214.237 23.8523 219.051 25.2045 223.526 27.9091C228.034 30.6136 231.672 34.7831 234.441 40.4176C237.21 46.0521 238.594 53.232 238.594 61.9574C238.594 70.3608 237.258 77.3958 234.586 83.0625C231.946 88.7292 228.372 92.9792 223.864 95.8125C219.389 98.6458 214.415 100.062 208.941 100.062C205.206 100.062 201.97 99.4508 199.234 98.2273C196.497 97.0038 194.195 95.3939 192.327 93.3977C190.492 91.4015 189.076 89.2604 188.077 86.9744H187.594V126.818H163.978ZM187.112 61.9091C187.112 65.9015 187.643 69.3788 188.705 72.3409C189.8 75.303 191.362 77.6051 193.39 79.2472C195.451 80.857 197.914 81.6619 200.779 81.6619C203.677 81.6619 206.14 80.857 208.168 79.2472C210.197 77.6051 211.726 75.303 212.756 72.3409C213.819 69.3788 214.35 65.9015 214.35 61.9091C214.35 57.9167 213.819 54.4555 212.756 51.5256C211.726 48.5956 210.197 46.3258 208.168 44.7159C206.172 43.1061 203.709 42.3011 200.779 42.3011C197.881 42.3011 195.418 43.09 193.39 44.6676C191.362 46.2453 189.8 48.4991 188.705 51.429C187.643 54.3589 187.112 57.8523 187.112 61.9091ZM274.587 0.0909061V99H250.97V0.0909061H274.587ZM324.246 100.401C316.455 100.401 309.758 98.8068 304.156 95.6193C298.585 92.3996 294.287 87.9242 291.261 82.1932C288.266 76.4299 286.769 69.7491 286.769 62.1506C286.769 54.5199 288.266 47.839 291.261 42.108C294.287 36.3447 298.585 31.8693 304.156 28.6818C309.758 25.4621 316.455 23.8523 324.246 23.8523C332.038 23.8523 338.719 25.4621 344.289 28.6818C349.891 31.8693 354.19 36.3447 357.184 42.108C360.21 47.839 361.724 54.5199 361.724 62.1506C361.724 69.7491 360.21 76.4299 357.184 82.1932C354.19 87.9242 349.891 92.3996 344.289 95.6193C338.719 98.8068 332.038 100.401 324.246 100.401ZM324.391 82.5795C327.225 82.5795 329.623 81.7102 331.587 79.9716C333.551 78.233 335.049 75.8182 336.079 72.7273C337.141 69.6364 337.673 66.0625 337.673 62.0057C337.673 57.8845 337.141 54.2784 336.079 51.1875C335.049 48.0966 333.551 45.6818 331.587 43.9432C329.623 42.2045 327.225 41.3352 324.391 41.3352C321.461 41.3352 318.982 42.2045 316.954 43.9432C314.958 45.6818 313.428 48.0966 312.366 51.1875C311.335 54.2784 310.82 57.8845 310.82 62.0057C310.82 66.0625 311.335 69.6364 312.366 72.7273C313.428 75.8182 314.958 78.233 316.954 79.9716C318.982 81.7102 321.461 82.5795 324.391 82.5795ZM373.822 99V24.8182H396.762V38.3409H397.535C398.887 33.447 401.093 29.8087 404.151 27.4261C407.21 25.0114 410.768 23.804 414.825 23.804C415.919 23.804 417.046 23.8845 418.205 24.0455C419.364 24.1742 420.443 24.3835 421.441 24.6733V45.1989C420.314 44.8125 418.833 44.5066 416.998 44.2812C415.195 44.0559 413.585 43.9432 412.168 43.9432C409.367 43.9432 406.84 44.571 404.586 45.8267C402.364 47.0502 400.61 48.7727 399.322 50.9943C398.066 53.1837 397.438 55.7595 397.438 58.7216V99H373.822ZM461.888 100.401C454.129 100.401 447.432 98.8712 441.798 95.8125C436.195 92.7216 431.881 88.3267 428.854 82.6278C425.86 76.8968 424.363 70.0871 424.363 62.1989C424.363 54.536 425.876 47.839 428.903 42.108C431.929 36.3447 436.195 31.8693 441.701 28.6818C447.207 25.4621 453.694 23.8523 461.164 23.8523C466.444 23.8523 471.274 24.6733 475.653 26.3153C480.031 27.9574 483.815 30.3883 487.002 33.608C490.19 36.8277 492.669 40.804 494.44 45.5369C496.21 50.2377 497.096 55.6307 497.096 61.7159V67.608H432.621V53.892H475.121C475.089 51.3807 474.494 49.143 473.335 47.179C472.175 45.215 470.582 43.6856 468.553 42.5909C466.557 41.464 464.255 40.9006 461.647 40.9006C459.007 40.9006 456.64 41.4962 454.548 42.6875C452.455 43.8466 450.797 45.4403 449.573 47.4688C448.35 49.465 447.706 51.7348 447.641 54.2784V68.2358C447.641 71.2623 448.237 73.9186 449.428 76.2045C450.62 78.4583 452.31 80.2131 454.499 81.4688C456.689 82.7244 459.297 83.3523 462.323 83.3523C464.416 83.3523 466.316 83.0625 468.022 82.483C469.728 81.9034 471.193 81.0502 472.417 79.9233C473.64 78.7964 474.558 77.4119 475.17 75.7699L496.854 76.3977C495.953 81.2595 493.973 85.4934 490.914 89.0994C487.888 92.6733 483.911 95.4583 478.985 97.4545C474.059 99.4186 468.36 100.401 461.888 100.401ZM538.376 0.0909061H567.982L593.095 61.3295H594.254L619.368 0.0909061H648.973V99H625.695V38.2443H624.874L601.112 98.3722H586.237L562.476 37.9062H561.655V99H538.376V0.0909061ZM698.512 100.401C690.72 100.401 684.023 98.8068 678.421 95.6193C672.851 92.3996 668.553 87.9242 665.526 82.1932C662.532 76.4299 661.035 69.7491 661.035 62.1506C661.035 54.5199 662.532 47.839 665.526 42.108C668.553 36.3447 672.851 31.8693 678.421 28.6818C684.023 25.4621 690.72 23.8523 698.512 23.8523C706.304 23.8523 712.985 25.4621 718.555 28.6818C724.157 31.8693 728.455 36.3447 731.45 42.108C734.476 47.839 735.989 54.5199 735.989 62.1506C735.989 69.7491 734.476 76.4299 731.45 82.1932C728.455 87.9242 724.157 92.3996 718.555 95.6193C712.985 98.8068 706.304 100.401 698.512 100.401ZM698.657 82.5795C701.49 82.5795 703.889 81.7102 705.853 79.9716C707.817 78.233 709.314 75.8182 710.344 72.7273C711.407 69.6364 711.938 66.0625 711.938 62.0057C711.938 57.8845 711.407 54.2784 710.344 51.1875C709.314 48.0966 707.817 45.6818 705.853 43.9432C703.889 42.2045 701.49 41.3352 698.657 41.3352C695.727 41.3352 693.248 42.2045 691.219 43.9432C689.223 45.6818 687.694 48.0966 686.631 51.1875C685.601 54.2784 685.086 57.8845 685.086 62.0057C685.086 66.0625 685.601 69.6364 686.631 72.7273C687.694 75.8182 689.223 78.233 691.219 79.9716C693.248 81.7102 695.727 82.5795 698.657 82.5795ZM748.087 99V24.8182H771.028V38.3409H771.8C773.153 33.447 775.358 29.8087 778.417 27.4261C781.476 25.0114 785.033 23.804 789.09 23.804C790.185 23.804 791.312 23.8845 792.471 24.0455C793.63 24.1742 794.709 24.3835 795.707 24.6733V45.1989C794.58 44.8125 793.099 44.5066 791.263 44.2812C789.46 44.0559 787.851 43.9432 786.434 43.9432C783.633 43.9432 781.105 44.571 778.852 45.8267C776.63 47.0502 774.875 48.7727 773.587 50.9943C772.332 53.1837 771.704 55.7595 771.704 58.7216V99H748.087ZM836.154 100.401C828.395 100.401 821.698 98.8712 816.063 95.8125C810.461 92.7216 806.147 88.3267 803.12 82.6278C800.126 76.8968 798.629 70.0871 798.629 62.1989C798.629 54.536 800.142 47.839 803.168 42.108C806.195 36.3447 810.461 31.8693 815.967 28.6818C821.472 25.4621 827.96 23.8523 835.43 23.8523C840.71 23.8523 845.54 24.6733 849.918 26.3153C854.297 27.9574 858.08 30.3883 861.268 33.608C864.455 36.8277 866.934 40.804 868.705 45.5369C870.476 50.2377 871.362 55.6307 871.362 61.7159V67.608H806.887V53.892H849.387C849.355 51.3807 848.759 49.143 847.6 47.179C846.441 45.215 844.847 43.6856 842.819 42.5909C840.823 41.464 838.521 40.9006 835.913 40.9006C833.272 40.9006 830.906 41.4962 828.813 42.6875C826.72 43.8466 825.062 45.4403 823.839 47.4688C822.615 49.465 821.971 51.7348 821.907 54.2784V68.2358C821.907 71.2623 822.503 73.9186 823.694 76.2045C824.885 78.4583 826.576 80.2131 828.765 81.4688C830.954 82.7244 833.562 83.3523 836.589 83.3523C838.682 83.3523 840.581 83.0625 842.288 82.483C843.994 81.9034 845.459 81.0502 846.683 79.9233C847.906 78.7964 848.824 77.4119 849.435 75.7699L871.12 76.3977C870.219 81.2595 868.238 85.4934 865.18 89.0994C862.153 92.6733 858.177 95.4583 853.251 97.4545C848.325 99.4186 842.626 100.401 836.154 100.401Z"/>
</mask>
<path d="M0.485796 99H-3.5142V103H0.485796V99ZM0.485796 0.0909042V-3.90909H-3.5142V0.0909042H0.485796ZM69.4517 0.0909042H73.4517V-3.90909H69.4517V0.0909042ZM69.4517 19.5057V23.5057H73.4517V19.5057H69.4517ZM24.392 19.5057V15.5057H20.392V19.5057H24.392ZM24.392 39.7898H20.392V43.7898H24.392V39.7898ZM65.9261 39.7898H69.9261V35.7898H65.9261V39.7898ZM65.9261 59.2528V63.2528H69.9261V59.2528H65.9261ZM24.392 59.2528V55.2528H20.392V59.2528H24.392ZM24.392 79.5852H20.392V83.5852H24.392V79.5852ZM69.4517 79.5852H73.4517V75.5852H69.4517V79.5852ZM69.4517 99V103H73.4517V99H69.4517ZM4.4858 99V0.0909042H-3.5142V99H4.4858ZM0.485796 4.0909H69.4517V-3.90909H0.485796V4.0909ZM65.4517 0.0909042V19.5057H73.4517V0.0909042H65.4517ZM69.4517 15.5057H24.392V23.5057H69.4517V15.5057ZM20.392 19.5057V39.7898H28.392V19.5057H20.392ZM24.392 43.7898H65.9261V35.7898H24.392V43.7898ZM61.9261 39.7898V59.2528H69.9261V39.7898H61.9261ZM65.9261 55.2528H24.392V63.2528H65.9261V55.2528ZM20.392 59.2528V79.5852H28.392V59.2528H20.392ZM24.392 83.5852H69.4517V75.5852H24.392V83.5852ZM65.4517 79.5852V99H73.4517V79.5852H65.4517ZM69.4517 95H0.485796V103H69.4517V95ZM104.514 24.8182L108.092 23.0293L106.986 20.8182H104.514V24.8182ZM116.733 49.2557L113.155 51.0445L116.671 58.0753L120.285 51.0949L116.733 49.2557ZM129.386 24.8182V20.8182H126.953L125.834 22.979L129.386 24.8182ZM153.196 24.8182L156.688 26.7689L160.012 20.8182H153.196V24.8182ZM132.477 61.9091L128.985 59.9584L127.875 61.9453L129.016 63.9145L132.477 61.9091ZM153.969 99V103H160.909L157.43 96.9946L153.969 99ZM130.352 99L126.852 100.936L127.993 103H130.352V99ZM116.733 74.3693L120.233 72.4337L116.689 66.0232L113.212 72.4709L116.733 74.3693ZM103.452 99V103H105.839L106.972 100.898L103.452 99ZM79.4972 99L76.0381 96.9912L72.5487 103H79.4972V99ZM101.037 61.9091L104.496 63.9178L105.634 61.9589L104.539 59.9758L101.037 61.9091ZM80.5597 24.8182V20.8182H73.7822L77.0579 26.7515L80.5597 24.8182ZM100.936 26.607L113.155 51.0445L120.311 47.4668L108.092 23.0293L100.936 26.607ZM120.285 51.0949L132.938 26.6574L125.834 22.979L113.181 47.4165L120.285 51.0949ZM129.386 28.8182H153.196V20.8182H129.386V28.8182ZM149.704 22.8675L128.985 59.9584L135.969 63.8598L156.688 26.7689L149.704 22.8675ZM129.016 63.9145L150.508 101.005L157.43 96.9946L135.938 59.9037L129.016 63.9145ZM153.969 95H130.352V103H153.969V95ZM133.853 97.0644L120.233 72.4337L113.232 76.3049L126.852 100.936L133.853 97.0644ZM113.212 72.4709L99.9309 97.1015L106.972 100.898L120.254 76.2678L113.212 72.4709ZM103.452 95H79.4972V103H103.452V95ZM82.9562 101.009L104.496 63.9178L97.5779 59.9003L76.0381 96.9912L82.9562 101.009ZM104.539 59.9758L84.0614 22.8849L77.0579 26.7515L97.5352 63.8424L104.539 59.9758ZM80.5597 28.8182H104.514V20.8182H80.5597V28.8182ZM163.978 126.818H159.978V130.818H163.978V126.818ZM163.978 24.8182V20.8182H159.978V24.8182H163.978ZM187.353 24.8182H191.353V20.8182H187.353V24.8182ZM187.353 37.5199H183.353V41.5199H187.353V37.5199ZM188.077 37.5199V41.5199H190.715L191.754 39.0956L188.077 37.5199ZM192.183 31L189.152 28.3892L189.14 28.4026L189.129 28.4162L192.183 31ZM199.04 25.8807L200.762 29.4913L200.771 29.4871L200.779 29.4829L199.04 25.8807ZM223.526 27.9091L221.457 31.3325L221.468 31.3391L223.526 27.9091ZM234.441 40.4176L238.031 38.6534L234.441 40.4176ZM234.586 83.0625L230.968 81.3563L230.964 81.3648L230.96 81.3732L234.586 83.0625ZM223.864 95.8125L221.736 92.4259L221.725 92.4329L223.864 95.8125ZM199.234 98.2273L197.601 101.879H197.601L199.234 98.2273ZM192.327 93.3977L189.383 96.1049L189.394 96.1177L189.406 96.1304L192.327 93.3977ZM188.077 86.9744L191.743 85.3739L190.696 82.9744H188.077V86.9744ZM187.594 86.9744V82.9744H183.594V86.9744H187.594ZM187.594 126.818V130.818H191.594V126.818H187.594ZM188.705 72.3409L184.94 73.6914L184.947 73.7095L184.953 73.7275L188.705 72.3409ZM193.39 79.2472L190.873 82.3561L190.9 82.3779L190.927 82.3993L193.39 79.2472ZM208.168 79.2472L210.655 82.3803L210.67 82.3683L210.685 82.3561L208.168 79.2472ZM212.756 72.3409L208.991 70.9904L208.985 71.0086L208.978 71.0268L212.756 72.3409ZM212.756 51.5256L208.983 52.8525L208.989 52.8709L208.996 52.8892L212.756 51.5256ZM208.168 44.7159L205.657 47.8296L205.669 47.8394L205.682 47.8491L208.168 44.7159ZM193.39 44.6676L190.934 41.5102L193.39 44.6676ZM188.705 51.429L184.958 50.029L184.951 50.0471L184.945 50.0653L188.705 51.429ZM167.978 126.818V24.8182H159.978V126.818H167.978ZM163.978 28.8182H187.353V20.8182H163.978V28.8182ZM183.353 24.8182V37.5199H191.353V24.8182H183.353ZM187.353 41.5199H188.077V33.5199H187.353V41.5199ZM191.754 39.0956C192.546 37.2471 193.692 35.4087 195.236 33.5838L189.129 28.4162C187.131 30.7769 185.54 33.2851 184.401 35.9442L191.754 39.0956ZM195.213 33.6108C196.616 31.9828 198.438 30.5991 200.762 29.4913L197.319 22.27C194.105 23.8024 191.356 25.8316 189.152 28.3892L195.213 33.6108ZM200.779 29.4829C202.919 28.45 205.644 27.8523 209.086 27.8523V19.8523C204.736 19.8523 200.764 20.6068 197.301 22.2785L200.779 29.4829ZM209.086 27.8523C213.497 27.8523 217.596 28.9992 221.457 31.3325L225.595 24.4856C220.505 21.4099 214.978 19.8523 209.086 19.8523V27.8523ZM221.468 31.3391C225.197 33.576 228.355 37.1024 230.851 42.1818L238.031 38.6534C234.989 32.4639 230.871 27.6513 225.584 24.4791L221.468 31.3391ZM230.851 42.1818C233.266 47.0963 234.594 53.6193 234.594 61.9574H242.594C242.594 52.8447 241.154 45.0079 238.031 38.6534L230.851 42.1818ZM234.594 61.9574C234.594 69.9622 233.318 76.3728 230.968 81.3563L238.204 84.7687C241.198 78.4189 242.594 70.7594 242.594 61.9574H234.594ZM230.96 81.3732C228.588 86.4656 225.484 90.0696 221.736 92.426L225.993 99.1991C231.259 95.8888 235.304 90.9927 238.212 84.7518L230.96 81.3732ZM221.725 92.4329C217.912 94.847 213.684 96.0625 208.941 96.0625V104.062C215.145 104.062 220.866 102.445 226.004 99.1921L221.725 92.4329ZM208.941 96.0625C205.635 96.0625 202.979 95.5203 200.866 94.5756L197.601 101.879C200.961 103.381 204.778 104.062 208.941 104.062V96.0625ZM200.866 94.5756C198.569 93.5484 196.718 92.2361 195.249 90.6651L189.406 96.1304C191.672 98.5518 194.425 100.459 197.601 101.879L200.866 94.5756ZM195.272 90.6905C193.711 88.9923 192.549 87.2197 191.743 85.3739L184.412 88.575C185.602 91.3012 187.274 93.8107 189.383 96.1049L195.272 90.6905ZM188.077 82.9744H187.594V90.9744H188.077V82.9744ZM183.594 86.9744V126.818H191.594V86.9744H183.594ZM187.594 122.818H163.978V130.818H187.594V122.818ZM183.112 61.9091C183.112 66.2438 183.687 70.1973 184.94 73.6914L192.47 70.9904C191.599 68.5603 191.112 65.5593 191.112 61.9091H183.112ZM184.953 73.7275C186.245 77.2225 188.179 80.1749 190.873 82.3561L195.907 76.1382C194.544 75.0353 193.355 73.3836 192.457 70.9543L184.953 73.7275ZM190.927 82.3993C193.76 84.612 197.112 85.6619 200.779 85.6619V77.6619C198.715 77.6619 197.141 77.102 195.852 76.0951L190.927 82.3993ZM200.779 85.6619C204.466 85.6619 207.835 84.6183 210.655 82.3803L205.682 76.114C204.445 77.0957 202.888 77.6619 200.779 77.6619V85.6619ZM210.685 82.3561C213.4 80.1581 215.309 77.1782 216.534 73.655L208.978 71.0268C208.143 73.4279 206.993 75.0522 205.652 76.1382L210.685 82.3561ZM216.521 73.6914C217.775 70.1973 218.35 66.2438 218.35 61.9091H210.35C210.35 65.5593 209.863 68.5603 208.991 70.9904L216.521 73.6914ZM218.35 61.9091C218.35 57.5761 217.775 53.6324 216.517 50.1619L208.996 52.8892C209.862 55.2786 210.35 58.2573 210.35 61.9091H218.35ZM216.53 50.1986C215.3 46.7005 213.382 43.7475 210.655 41.5827L205.682 47.8491C207.011 48.904 208.152 50.4908 208.983 52.8525L216.53 50.1986ZM210.679 41.6023C207.872 39.3383 204.486 38.3011 200.779 38.3011V46.3011C202.933 46.3011 204.472 46.8738 205.657 47.8296L210.679 41.6023ZM200.779 38.3011C197.111 38.3011 193.754 39.3173 190.934 41.5102L195.846 47.825C197.083 46.8626 198.651 46.3011 200.779 46.3011V38.3011ZM190.934 41.5102C188.205 43.6325 186.256 46.5561 184.958 50.029L192.452 52.829C193.344 50.442 194.518 48.858 195.846 47.825L190.934 41.5102ZM184.945 50.0653C183.684 53.5419 183.112 57.5201 183.112 61.9091H191.112C191.112 58.1844 191.601 55.1759 192.466 52.7926L184.945 50.0653ZM274.587 0.0909042H278.587V-3.90909H274.587V0.0909042ZM274.587 99V103H278.587V99H274.587ZM250.97 99H246.97V103H250.97V99ZM250.97 0.0909042V-3.90909H246.97V0.0909042H250.97ZM270.587 0.0909042V99H278.587V0.0909042H270.587ZM274.587 95H250.97V103H274.587V95ZM254.97 99V0.0909042H246.97V99H254.97ZM250.97 4.0909H274.587V-3.90909H250.97V4.0909ZM304.156 95.6193L302.154 99.0824L302.166 99.0892L302.177 99.096L304.156 95.6193ZM291.261 82.1932L287.711 84.0373L287.717 84.0492L287.724 84.0611L291.261 82.1932ZM291.261 42.108L287.719 40.2482L287.715 40.2556L291.261 42.108ZM304.156 28.6818L306.142 32.1536L306.149 32.1499L304.156 28.6818ZM344.289 28.6818L342.287 32.1449L342.299 32.1517L342.311 32.1585L344.289 28.6818ZM357.184 42.108L353.634 43.9521L353.641 43.964L353.647 43.9759L357.184 42.108ZM357.184 82.1932L353.643 80.3335L353.639 80.3409L357.184 82.1932ZM344.289 95.6193L346.276 99.0911L346.282 99.0874L344.289 95.6193ZM331.587 79.9716L328.936 76.9765L331.587 79.9716ZM336.079 72.7273L332.296 71.4269L332.29 71.4446L332.284 71.4624L336.079 72.7273ZM336.079 51.1875L332.284 52.4524L332.29 52.4701L332.296 52.4878L336.079 51.1875ZM331.587 43.9432L334.239 40.9481V40.9481L331.587 43.9432ZM316.954 43.9432L314.351 40.9062L314.339 40.9165L314.327 40.9269L316.954 43.9432ZM312.366 51.1875L308.583 49.8872L308.577 49.9049L308.571 49.9226L312.366 51.1875ZM312.366 72.7273L308.571 73.9922L308.577 74.0099L308.583 74.0276L312.366 72.7273ZM316.954 79.9716L314.327 82.9879L314.339 82.9983L314.351 83.0086L316.954 79.9716ZM324.246 96.4006C317.004 96.4006 311.019 94.9222 306.134 92.1427L302.177 99.096C308.497 102.691 315.906 104.401 324.246 104.401V96.4006ZM306.157 92.1562C301.244 89.3162 297.475 85.396 294.798 80.3253L287.724 84.0611C291.099 90.4525 295.927 95.4831 302.154 99.0824L306.157 92.1562ZM294.81 80.349C292.158 75.245 290.769 69.2162 290.769 62.1506H282.769C282.769 70.2819 284.374 77.6149 287.711 84.0373L294.81 80.349ZM290.769 62.1506C290.769 55.049 292.16 49.025 294.806 43.9603L287.715 40.2556C284.373 46.6531 282.769 53.9908 282.769 62.1506H290.769ZM294.802 43.9677C297.48 38.8686 301.243 34.957 306.142 32.1535L302.169 25.2101C295.928 28.7816 291.095 33.8208 287.719 40.2482L294.802 43.9677ZM306.149 32.1499C311.031 29.344 317.01 27.8523 324.246 27.8523V19.8523C315.899 19.8523 308.485 21.5802 302.162 25.2138L306.149 32.1499ZM324.246 27.8523C331.483 27.8523 337.442 29.3443 342.287 32.1449L346.291 25.2187C339.996 21.58 332.593 19.8523 324.246 19.8523V27.8523ZM342.311 32.1585C347.238 34.9616 350.993 38.8676 353.634 43.9521L360.733 40.2638C357.387 33.8218 352.545 28.7771 346.267 25.2052L342.311 32.1585ZM353.647 43.9759C356.32 49.0371 357.724 55.0555 357.724 62.1506H365.724C365.724 53.9843 364.101 46.6409 360.721 40.2401L353.647 43.9759ZM357.724 62.1506C357.724 69.2097 356.321 75.2328 353.643 80.3335L360.725 84.0529C364.1 77.6271 365.724 70.2884 365.724 62.1506H357.724ZM353.639 80.3409C350.997 85.397 347.237 89.3116 342.296 92.1513L346.282 99.0874C352.546 95.4877 357.382 90.4515 360.729 84.0455L353.639 80.3409ZM342.302 92.1476C337.454 94.9219 331.49 96.4006 324.246 96.4006V104.401C332.586 104.401 339.984 102.692 346.276 99.091L342.302 92.1476ZM324.391 86.5795C328.117 86.5795 331.482 85.4069 334.239 82.9666L328.936 76.9765C327.765 78.0135 326.333 78.5795 324.391 78.5795V86.5795ZM334.239 82.9666C336.843 80.6615 338.674 77.5903 339.874 73.9922L332.284 71.4624C331.423 74.046 330.26 75.8044 328.936 76.9765L334.239 82.9666ZM339.862 74.0276C341.098 70.4313 341.673 66.4025 341.673 62.0057H333.673C333.673 65.7225 333.185 68.8415 332.296 71.4269L339.862 74.0276ZM341.673 62.0057C341.673 57.5522 341.1 53.4894 339.862 49.8872L332.296 52.4878C333.183 55.0674 333.673 58.2167 333.673 62.0057H341.673ZM339.874 49.9226C338.674 46.3244 336.843 43.2533 334.239 40.9481L328.936 46.9382C330.26 48.1104 331.423 49.8687 332.284 52.4524L339.874 49.9226ZM334.239 40.9481C331.482 38.5078 328.117 37.3352 324.391 37.3352V45.3352C326.333 45.3352 327.765 45.9013 328.936 46.9382L334.239 40.9481ZM324.391 37.3352C320.606 37.3352 317.176 38.4844 314.351 40.9062L319.557 46.9802C320.788 45.9247 322.317 45.3352 324.391 45.3352V37.3352ZM314.327 40.9269C311.691 43.2228 309.82 46.2873 308.583 49.8872L316.149 52.4878C317.036 49.9059 318.225 48.1408 319.581 46.9595L314.327 40.9269ZM308.571 49.9226C307.374 53.5129 306.82 57.5631 306.82 62.0057H314.82C314.82 58.2059 315.297 55.0439 316.16 52.4524L308.571 49.9226ZM306.82 62.0057C306.82 66.3915 307.376 70.4076 308.571 73.9922L316.16 71.4624C315.295 68.8652 314.82 65.7335 314.82 62.0057H306.82ZM308.583 74.0276C309.82 77.6275 311.691 80.692 314.327 82.9879L319.581 76.9553C318.225 75.7739 317.036 74.0089 316.149 71.427L308.583 74.0276ZM314.351 83.0086C317.176 85.4303 320.606 86.5795 324.391 86.5795V78.5795C322.317 78.5795 320.788 77.9901 319.557 76.9346L314.351 83.0086ZM373.822 99H369.822V103H373.822V99ZM373.822 24.8182V20.8182H369.822V24.8182H373.822ZM396.762 24.8182H400.762V20.8182H396.762V24.8182ZM396.762 38.3409H392.762V42.3409H396.762V38.3409ZM397.535 38.3409V42.3409H400.579L401.39 39.4062L397.535 38.3409ZM404.151 27.4261L406.609 30.5818L406.62 30.5737L406.63 30.5657L404.151 27.4261ZM418.205 24.0455L417.655 28.0074L417.709 28.0149L417.764 28.021L418.205 24.0455ZM421.441 24.6733H425.441V21.6694L422.556 20.8319L421.441 24.6733ZM421.441 45.1989L420.144 48.9826L425.441 50.7989V45.1989H421.441ZM416.998 44.2812L416.502 48.2504L416.51 48.2514L416.998 44.2812ZM404.586 45.8267L406.516 49.3305L406.524 49.3258L406.533 49.321L404.586 45.8267ZM399.322 50.9943L395.861 48.9882L395.857 48.9962L395.852 49.0043L399.322 50.9943ZM397.438 99V103H401.438V99H397.438ZM377.822 99V24.8182H369.822V99H377.822ZM373.822 28.8182H396.762V20.8182H373.822V28.8182ZM392.762 24.8182V38.3409H400.762V24.8182H392.762ZM396.762 42.3409H397.535V34.3409H396.762V42.3409ZM401.39 39.4062C402.584 35.085 404.412 32.2931 406.609 30.5818L401.693 24.2705C397.773 27.3243 395.19 31.8089 393.679 37.2756L401.39 39.4062ZM406.63 30.5657C408.952 28.7324 411.627 27.804 414.825 27.804V19.804C409.908 19.804 405.468 21.2903 401.673 24.2866L406.63 30.5657ZM414.825 27.804C415.723 27.804 416.666 27.87 417.655 28.0074L418.756 20.0835C417.427 19.8989 416.115 19.804 414.825 19.804V27.804ZM417.764 28.021C418.722 28.1275 419.573 28.296 420.326 28.5147L422.556 20.8319C421.313 20.471 420.007 20.221 418.647 20.0699L417.764 28.021ZM417.441 24.6733V45.1989H425.441V24.6733H417.441ZM422.738 41.4151C421.247 40.9036 419.463 40.5539 417.485 40.3111L416.51 48.2514C418.203 48.4593 419.382 48.7214 420.144 48.9826L422.738 41.4151ZM417.494 40.3121C415.57 40.0716 413.789 39.9432 412.168 39.9432V47.9432C413.38 47.9432 414.82 48.0401 416.502 48.2504L417.494 40.3121ZM412.168 39.9432C408.746 39.9432 405.539 40.7171 402.639 42.3324L406.533 49.321C408.141 48.425 409.989 47.9432 412.168 47.9432V39.9432ZM402.656 42.3229C399.789 43.9018 397.509 46.1458 395.861 48.9882L402.782 53.0004C403.71 51.3997 404.939 50.1986 406.516 49.3305L402.656 42.3229ZM395.852 49.0043C394.193 51.8972 393.438 55.1833 393.438 58.7216H401.438C401.438 56.3356 401.939 54.4703 402.792 52.9844L395.852 49.0043ZM393.438 58.7216V99H401.438V58.7216H393.438ZM397.438 95H373.822V103H397.438V95ZM441.798 95.8125L439.865 99.3148L439.877 99.3214L439.889 99.3279L441.798 95.8125ZM428.854 82.6278L425.309 84.4801L425.315 84.4921L425.322 84.504L428.854 82.6278ZM428.903 42.108L432.44 43.9759L432.444 43.9677L428.903 42.108ZM441.701 28.6818L443.705 32.1435L443.713 32.1391L443.72 32.1347L441.701 28.6818ZM475.653 26.3153L477.057 22.57L475.653 26.3153ZM494.44 45.5369L490.693 46.9386L490.696 46.947L494.44 45.5369ZM497.096 67.608V71.608H501.096V67.608H497.096ZM432.621 67.608H428.621V71.608H432.621V67.608ZM432.621 53.892V49.892H428.621V53.892H432.621ZM475.121 53.892V57.892H479.173L479.121 53.8408L475.121 53.892ZM468.553 42.5909L466.587 46.0742L466.62 46.0929L466.654 46.111L468.553 42.5909ZM454.548 42.6875L456.486 46.1867L456.506 46.1753L456.526 46.1638L454.548 42.6875ZM449.573 47.4688L452.984 49.559L452.991 49.5469L452.998 49.5347L449.573 47.4688ZM447.641 54.2784L443.643 54.1772L443.641 54.2278V54.2784H447.641ZM449.428 76.2045L445.881 78.0531L445.886 78.0635L445.892 78.0738L449.428 76.2045ZM454.499 81.4688L452.509 84.9386L454.499 81.4688ZM468.022 82.483L469.308 86.2705L468.022 82.483ZM472.417 79.9233L475.127 82.8655V82.8655L472.417 79.9233ZM475.17 75.7699L475.286 71.7716L472.422 71.6886L471.421 74.3735L475.17 75.7699ZM496.854 76.3977L500.787 77.127L501.639 72.5346L496.97 72.3994L496.854 76.3977ZM490.914 89.0994L487.864 86.512L487.862 86.5144L490.914 89.0994ZM478.985 97.4545L480.466 101.17L480.477 101.166L480.487 101.162L478.985 97.4545ZM461.888 96.4006C454.656 96.4006 448.643 94.9774 443.706 92.2971L439.889 99.3279C446.221 102.765 453.602 104.401 461.888 104.401V96.4006ZM443.73 92.3102C438.814 89.5978 435.053 85.7708 432.387 80.7517L425.322 84.504C428.709 90.8826 433.577 95.8453 439.865 99.3148L443.73 92.3102ZM432.4 80.7755C429.763 75.7287 428.363 69.5822 428.363 62.1989H420.363C420.363 70.592 421.957 78.0649 425.309 84.4801L432.4 80.7755ZM428.363 62.1989C428.363 55.0685 429.768 49.0348 432.44 43.9759L425.366 40.2401C421.984 46.6432 420.363 54.0035 420.363 62.1989H428.363ZM432.444 43.9677C435.128 38.8564 438.869 34.9436 443.705 32.1435L439.697 25.2201C433.522 28.795 428.73 33.833 425.361 40.2482L432.444 43.9677ZM443.72 32.1347C448.515 29.3305 454.281 27.8523 461.164 27.8523V19.8523C453.107 19.8523 445.898 21.5937 439.682 25.2289L443.72 32.1347ZM461.164 27.8523C466.026 27.8523 470.373 28.6073 474.248 30.0607L477.057 22.57C472.175 20.7393 466.863 19.8523 461.164 19.8523V27.8523ZM474.248 30.0607C478.104 31.5065 481.392 33.6264 484.16 36.4221L489.845 30.7938C486.237 27.1501 481.959 24.4082 477.057 22.57L474.248 30.0607ZM484.16 36.4221C486.906 39.1961 489.098 42.6737 490.693 46.9386L498.186 44.1352C496.24 38.9342 493.474 34.4592 489.845 30.7938L484.16 36.4221ZM490.696 46.947C492.266 51.113 493.096 56.0135 493.096 61.7159H501.096C501.096 55.2479 500.155 49.3624 498.183 44.1268L490.696 46.947ZM493.096 61.7159V67.608H501.096V61.7159H493.096ZM497.096 63.608H432.621V71.608H497.096V63.608ZM436.621 67.608V53.892H428.621V67.608H436.621ZM432.621 57.892H475.121V49.892H432.621V57.892ZM479.121 53.8408C479.081 50.7043 478.328 47.7704 476.779 45.146L469.89 49.212C470.659 50.5156 471.098 52.0571 471.122 53.9433L479.121 53.8408ZM476.779 45.146C475.246 42.5478 473.115 40.5074 470.453 39.0708L466.654 46.111C468.048 46.8638 469.105 47.8821 469.89 49.212L476.779 45.146ZM470.52 39.1076C467.845 37.5976 464.848 36.9006 461.647 36.9006V44.9006C463.662 44.9006 465.269 45.3304 466.587 46.0742L470.52 39.1076ZM461.647 36.9006C458.382 36.9006 455.322 37.6443 452.569 39.2112L456.526 46.1638C457.959 45.3482 459.632 44.9006 461.647 44.9006V36.9006ZM452.61 39.1883C449.911 40.6832 447.737 42.7685 446.148 45.4028L452.998 49.5347C453.856 48.1122 454.999 47.01 456.486 46.1867L452.61 39.1883ZM446.163 45.3785C444.54 48.0259 443.723 50.9933 443.643 54.1772L451.64 54.3796C451.688 52.4764 452.159 50.904 452.984 49.559L446.163 45.3785ZM443.641 54.2784V68.2358H451.641V54.2784H443.641ZM443.641 68.2358C443.641 71.794 444.345 75.1047 445.881 78.0531L452.975 74.356C452.129 72.7324 451.641 70.7307 451.641 68.2358H443.641ZM445.892 78.0738C447.433 80.9895 449.656 83.3024 452.509 84.9386L456.489 77.9989C454.963 77.1237 453.806 75.9272 452.965 74.3353L445.892 78.0738ZM452.509 84.9386C455.415 86.6049 458.738 87.3523 462.323 87.3523V79.3523C459.856 79.3523 457.963 78.844 456.489 77.9989L452.509 84.9386ZM462.323 87.3523C464.784 87.3523 467.127 87.0113 469.308 86.2705L466.736 78.6954C465.504 79.1137 464.048 79.3523 462.323 79.3523V87.3523ZM469.308 86.2705C471.498 85.5267 473.46 84.401 475.127 82.8655L469.707 76.9811C468.927 77.6994 467.958 78.2802 466.736 78.6954L469.308 86.2705ZM475.127 82.8655C476.838 81.2894 478.099 79.3657 478.918 77.1663L471.421 74.3735C471.017 75.4582 470.443 76.3035 469.707 76.9811L475.127 82.8655ZM475.054 79.7682L496.739 80.396L496.97 72.3994L475.286 71.7716L475.054 79.7682ZM492.921 75.6684C492.141 79.8771 490.45 83.4625 487.864 86.512L493.965 91.6869C497.495 87.5242 499.765 82.6419 500.787 77.127L492.921 75.6684ZM487.862 86.5144C485.307 89.5311 481.891 91.9611 477.483 93.7474L480.487 101.162C485.932 98.9556 490.468 95.8155 493.967 91.6844L487.862 86.5144ZM477.504 93.739C473.14 95.4787 467.961 96.4006 461.888 96.4006V104.401C468.759 104.401 474.978 103.358 480.466 101.17L477.504 93.739ZM538.376 0.0909042V-3.90909H534.376V0.0909042H538.376ZM567.982 0.0909042L571.682 -1.42681L570.664 -3.90909H567.982V0.0909042ZM593.095 61.3295L589.394 62.8473L590.412 65.3295H593.095V61.3295ZM594.254 61.3295V65.3295H596.937L597.955 62.8473L594.254 61.3295ZM619.368 0.0909042V-3.90909H616.685L615.667 -1.42681L619.368 0.0909042ZM648.973 0.0909042H652.973V-3.90909H648.973V0.0909042ZM648.973 99V103H652.973V99H648.973ZM625.695 99H621.695V103H625.695V99ZM625.695 38.2443H629.695V34.2443H625.695V38.2443ZM624.874 38.2443V34.2443H622.153L621.154 36.7742L624.874 38.2443ZM601.112 98.3722V102.372H603.833L604.832 99.8423L601.112 98.3722ZM586.237 98.3722L582.514 99.8351L583.511 102.372H586.237V98.3722ZM562.476 37.9062L566.199 36.4433L565.202 33.9062H562.476V37.9062ZM561.655 37.9062V33.9062H557.655V37.9062H561.655ZM561.655 99V103H565.655V99H561.655ZM538.376 99H534.376V103H538.376V99ZM538.376 4.0909H567.982V-3.90909H538.376V4.0909ZM564.281 1.60862L589.394 62.8473L596.796 59.8118L571.682 -1.42681L564.281 1.60862ZM593.095 65.3295H594.254V57.3295H593.095V65.3295ZM597.955 62.8473L623.069 1.60862L615.667 -1.42681L590.553 59.8118L597.955 62.8473ZM619.368 4.0909H648.973V-3.90909H619.368V4.0909ZM644.973 0.0909042V99H652.973V0.0909042H644.973ZM648.973 95H625.695V103H648.973V95ZM629.695 99V38.2443H621.695V99H629.695ZM625.695 34.2443H624.874V42.2443H625.695V34.2443ZM621.154 36.7742L597.392 96.9021L604.832 99.8423L628.594 39.7144L621.154 36.7742ZM601.112 94.3722H586.237V102.372H601.112V94.3722ZM589.96 96.9092L566.199 36.4433L558.753 39.3692L582.514 99.8351L589.96 96.9092ZM562.476 33.9062H561.655V41.9062H562.476V33.9062ZM557.655 37.9062V99H565.655V37.9062H557.655ZM561.655 95H538.376V103H561.655V95ZM542.376 99V0.0909042H534.376V99H542.376ZM678.421 95.6193L676.419 99.0824L676.431 99.0892L676.443 99.096L678.421 95.6193ZM665.526 82.1932L661.977 84.0373L661.983 84.0492L661.989 84.0611L665.526 82.1932ZM665.526 42.108L661.985 40.2482L661.981 40.2556L665.526 42.108ZM678.421 28.6818L680.408 32.1536L680.414 32.1499L678.421 28.6818ZM718.555 28.6818L716.553 32.1449L716.565 32.1517L716.577 32.1585L718.555 28.6818ZM731.45 42.108L727.9 43.9521L727.906 43.964L727.912 43.9759L731.45 42.108ZM731.45 82.1932L727.908 80.3335L727.904 80.3409L731.45 82.1932ZM718.555 95.6193L720.541 99.0911L720.548 99.0874L718.555 95.6193ZM705.853 79.9716L703.202 76.9765L705.853 79.9716ZM710.344 72.7273L706.562 71.4269L706.556 71.4446L706.55 71.4624L710.344 72.7273ZM710.344 51.1875L706.55 52.4524L706.556 52.4701L706.562 52.4878L710.344 51.1875ZM705.853 43.9432L708.504 40.9481V40.9481L705.853 43.9432ZM691.219 43.9432L688.616 40.9062L688.604 40.9165L688.592 40.9269L691.219 43.9432ZM686.631 51.1875L682.849 49.8872L682.843 49.9049L682.837 49.9226L686.631 51.1875ZM686.631 72.7273L682.837 73.9922L682.843 74.0099L682.849 74.0276L686.631 72.7273ZM691.219 79.9716L688.592 82.9879L688.604 82.9983L688.616 83.0086L691.219 79.9716ZM698.512 96.4006C691.27 96.4006 685.284 94.9222 680.399 92.1427L676.443 99.096C682.762 102.691 690.171 104.401 698.512 104.401V96.4006ZM680.423 92.1562C675.51 89.3162 671.741 85.396 669.063 80.3253L661.989 84.0611C665.364 90.4525 670.193 95.4831 676.419 99.0824L680.423 92.1562ZM669.076 80.349C666.424 75.245 665.035 69.2162 665.035 62.1506H657.035C657.035 70.2819 658.64 77.6149 661.977 84.0373L669.076 80.349ZM665.035 62.1506C665.035 55.049 666.425 49.025 669.072 43.9603L661.981 40.2556C658.639 46.6531 657.035 53.9908 657.035 62.1506H665.035ZM669.068 43.9677C671.745 38.8686 675.509 34.957 680.408 32.1535L676.434 25.2101C670.193 28.7816 665.36 33.8208 661.985 40.2482L669.068 43.9677ZM680.414 32.1499C685.297 29.344 691.276 27.8523 698.512 27.8523V19.8523C690.165 19.8523 682.75 21.5802 676.428 25.2138L680.414 32.1499ZM698.512 27.8523C705.749 27.8523 711.708 29.3443 716.553 32.1449L720.556 25.2187C714.261 21.58 706.859 19.8523 698.512 19.8523V27.8523ZM716.577 32.1585C721.503 34.9616 725.258 38.8676 727.9 43.9521L734.999 40.2638C731.652 33.8218 726.811 28.7771 720.533 25.2052L716.577 32.1585ZM727.912 43.9759C730.585 49.0371 731.989 55.0555 731.989 62.1506H739.989C739.989 53.9843 738.367 46.6409 734.987 40.2401L727.912 43.9759ZM731.989 62.1506C731.989 69.2097 730.587 75.2328 727.908 80.3335L734.991 84.0529C738.365 77.6271 739.989 70.2884 739.989 62.1506H731.989ZM727.904 80.3409C725.263 85.397 721.503 89.3116 716.562 92.1513L720.548 99.0874C726.811 95.4877 731.648 90.4515 734.995 84.0455L727.904 80.3409ZM716.568 92.1476C711.72 94.9219 705.755 96.4006 698.512 96.4006V104.401C706.852 104.401 714.249 102.692 720.541 99.091L716.568 92.1476ZM698.657 86.5795C702.382 86.5795 705.748 85.4069 708.504 82.9666L703.202 76.9765C702.03 78.0135 700.598 78.5795 698.657 78.5795V86.5795ZM708.504 82.9666C711.108 80.6615 712.94 77.5903 714.139 73.9922L706.55 71.4624C705.688 74.046 704.526 75.8044 703.202 76.9765L708.504 82.9666ZM714.127 74.0276C715.363 70.4313 715.938 66.4025 715.938 62.0057H707.938C707.938 65.7225 707.451 68.8415 706.562 71.4269L714.127 74.0276ZM715.938 62.0057C715.938 57.5522 715.365 53.4894 714.127 49.8872L706.562 52.4878C707.448 55.0674 707.938 58.2167 707.938 62.0057H715.938ZM714.139 49.9226C712.94 46.3244 711.108 43.2533 708.504 40.9481L703.202 46.9382C704.526 48.1104 705.688 49.8687 706.55 52.4524L714.139 49.9226ZM708.504 40.9481C705.748 38.5078 702.382 37.3352 698.657 37.3352V45.3352C700.598 45.3352 702.03 45.9013 703.202 46.9382L708.504 40.9481ZM698.657 37.3352C694.871 37.3352 691.442 38.4844 688.616 40.9062L693.823 46.9802C695.054 45.9247 696.583 45.3352 698.657 45.3352V37.3352ZM688.592 40.9269C685.956 43.2228 684.086 46.2873 682.849 49.8872L690.414 52.4878C691.302 49.9059 692.49 48.1408 693.847 46.9595L688.592 40.9269ZM682.837 49.9226C681.64 53.5129 681.086 57.5631 681.086 62.0057H689.086C689.086 58.2059 689.562 55.0439 690.426 52.4524L682.837 49.9226ZM681.086 62.0057C681.086 66.3915 681.642 70.4076 682.837 73.9922L690.426 71.4624C689.56 68.8652 689.086 65.7335 689.086 62.0057H681.086ZM682.849 74.0276C684.086 77.6275 685.956 80.692 688.592 82.9879L693.847 76.9553C692.49 75.7739 691.302 74.0089 690.414 71.427L682.849 74.0276ZM688.616 83.0086C691.442 85.4303 694.871 86.5795 698.657 86.5795V78.5795C696.583 78.5795 695.054 77.9901 693.823 76.9346L688.616 83.0086ZM748.087 99H744.087V103H748.087V99ZM748.087 24.8182V20.8182H744.087V24.8182H748.087ZM771.028 24.8182H775.028V20.8182H771.028V24.8182ZM771.028 38.3409H767.028V42.3409H771.028V38.3409ZM771.8 38.3409V42.3409H774.845L775.656 39.4062L771.8 38.3409ZM778.417 27.4261L780.875 30.5818L780.885 30.5737L780.896 30.5657L778.417 27.4261ZM792.471 24.0455L791.921 28.0074L791.975 28.0149L792.029 28.021L792.471 24.0455ZM795.707 24.6733H799.707V21.6694L796.822 20.8319L795.707 24.6733ZM795.707 45.1989L794.409 48.9826L799.707 50.7989V45.1989H795.707ZM791.263 44.2812L790.767 48.2504L790.776 48.2514L791.263 44.2812ZM778.852 45.8267L780.781 49.3305L780.79 49.3258L780.798 49.321L778.852 45.8267ZM773.587 50.9943L770.127 48.9882L770.122 48.9962L770.118 49.0043L773.587 50.9943ZM771.704 99V103H775.704V99H771.704ZM752.087 99V24.8182H744.087V99H752.087ZM748.087 28.8182H771.028V20.8182H748.087V28.8182ZM767.028 24.8182V38.3409H775.028V24.8182H767.028ZM771.028 42.3409H771.8V34.3409H771.028V42.3409ZM775.656 39.4062C776.85 35.085 778.678 32.2931 780.875 30.5818L775.959 24.2705C772.038 27.3243 769.455 31.8089 767.945 37.2756L775.656 39.4062ZM780.896 30.5657C783.218 28.7324 785.893 27.804 789.09 27.804V19.804C784.174 19.804 779.734 21.2903 775.938 24.2866L780.896 30.5657ZM789.09 27.804C789.989 27.804 790.931 27.87 791.921 28.0074L793.021 20.0835C791.692 19.8989 790.381 19.804 789.09 19.804V27.804ZM792.029 28.021C792.987 28.1275 793.838 28.296 794.591 28.5147L796.822 20.8319C795.579 20.471 794.273 20.221 792.913 20.0699L792.029 28.021ZM791.707 24.6733V45.1989H799.707V24.6733H791.707ZM797.004 41.4151C795.512 40.9036 793.729 40.5539 791.751 40.3111L790.776 48.2514C792.469 48.4593 793.647 48.7214 794.409 48.9826L797.004 41.4151ZM791.76 40.3121C789.835 40.0716 788.055 39.9432 786.434 39.9432V47.9432C787.646 47.9432 789.086 48.0401 790.767 48.2504L791.76 40.3121ZM786.434 39.9432C783.011 39.9432 779.804 40.7171 776.905 42.3324L780.798 49.321C782.407 48.425 784.254 47.9432 786.434 47.9432V39.9432ZM776.922 42.3229C774.055 43.9018 771.775 46.1458 770.127 48.9882L777.048 53.0004C777.976 51.3997 779.205 50.1986 780.781 49.3305L776.922 42.3229ZM770.118 49.0043C768.458 51.8972 767.704 55.1833 767.704 58.7216H775.704C775.704 56.3356 776.205 54.4703 777.057 52.9844L770.118 49.0043ZM767.704 58.7216V99H775.704V58.7216H767.704ZM771.704 95H748.087V103H771.704V95ZM816.063 95.8125L814.131 99.3148L814.143 99.3214L814.155 99.3279L816.063 95.8125ZM803.12 82.6278L799.575 84.4801L799.581 84.4921L799.587 84.504L803.12 82.6278ZM803.168 42.108L806.705 43.9759L806.71 43.9677L803.168 42.108ZM815.967 28.6818L817.971 32.1435L817.978 32.1391L817.986 32.1347L815.967 28.6818ZM849.918 26.3153L851.323 22.57L849.918 26.3153ZM868.705 45.5369L864.959 46.9386L864.962 46.947L868.705 45.5369ZM871.362 67.608V71.608H875.362V67.608H871.362ZM806.887 67.608H802.887V71.608H806.887V67.608ZM806.887 53.892V49.892H802.887V53.892H806.887ZM849.387 53.892V57.892H853.439L853.387 53.8408L849.387 53.892ZM842.819 42.5909L840.853 46.0742L840.886 46.0929L840.919 46.111L842.819 42.5909ZM828.813 42.6875L830.751 46.1867L830.772 46.1753L830.792 46.1638L828.813 42.6875ZM823.839 47.4688L827.249 49.559L827.257 49.5469L827.264 49.5347L823.839 47.4688ZM821.907 54.2784L817.908 54.1772L817.907 54.2278V54.2784H821.907ZM823.694 76.2045L820.147 78.0531L820.152 78.0635L820.158 78.0738L823.694 76.2045ZM828.765 81.4688L826.775 84.9386L828.765 81.4688ZM842.288 82.483L843.574 86.2705L842.288 82.483ZM846.683 79.9233L849.392 82.8655V82.8655L846.683 79.9233ZM849.435 75.7699L849.551 71.7716L846.687 71.6886L845.687 74.3735L849.435 75.7699ZM871.12 76.3977L875.053 77.127L875.905 72.5346L871.236 72.3994L871.12 76.3977ZM865.18 89.0994L862.129 86.512L862.127 86.5144L865.18 89.0994ZM853.251 97.4545L854.732 101.17L854.743 101.166L854.753 101.162L853.251 97.4545ZM836.154 96.4006C828.922 96.4006 822.909 94.9774 817.972 92.2971L814.155 99.3279C820.486 102.765 827.867 104.401 836.154 104.401V96.4006ZM817.996 92.3102C813.079 89.5978 809.318 85.7708 806.653 80.7517L799.587 84.504C802.975 90.8826 807.842 95.8453 814.131 99.3148L817.996 92.3102ZM806.665 80.7755C804.028 75.7287 802.629 69.5822 802.629 62.1989H794.629C794.629 70.592 796.223 78.0649 799.575 84.4801L806.665 80.7755ZM802.629 62.1989C802.629 55.0685 804.034 49.0348 806.705 43.9759L799.631 40.2401C796.25 46.6432 794.629 54.0035 794.629 62.1989H802.629ZM806.71 43.9677C809.394 38.8564 813.134 34.9436 817.971 32.1435L813.962 25.2201C807.788 28.795 802.996 33.833 799.627 40.2482L806.71 43.9677ZM817.986 32.1347C822.781 29.3305 828.547 27.8523 835.43 27.8523V19.8523C827.373 19.8523 820.164 21.5937 813.947 25.2289L817.986 32.1347ZM835.43 27.8523C840.292 27.8523 844.638 28.6073 848.514 30.0607L851.323 22.57C846.441 20.7393 841.128 19.8523 835.43 19.8523V27.8523ZM848.514 30.0607C852.37 31.5065 855.657 33.6264 858.425 36.4221L864.11 30.7938C860.503 27.1501 856.225 24.4082 851.323 22.57L848.514 30.0607ZM858.425 36.4221C861.171 39.1961 863.363 42.6737 864.959 46.9386L872.452 44.1352C870.506 38.9342 867.739 34.4592 864.11 30.7938L858.425 36.4221ZM864.962 46.947C866.531 51.113 867.362 56.0135 867.362 61.7159H875.362C875.362 55.2479 874.421 49.3624 872.448 44.1268L864.962 46.947ZM867.362 61.7159V67.608H875.362V61.7159H867.362ZM871.362 63.608H806.887V71.608H871.362V63.608ZM810.887 67.608V53.892H802.887V67.608H810.887ZM806.887 57.892H849.387V49.892H806.887V57.892ZM853.387 53.8408C853.347 50.7043 852.594 47.7704 851.045 45.146L844.155 49.212C844.925 50.5156 845.363 52.0571 845.387 53.9433L853.387 53.8408ZM851.045 45.146C849.512 42.5478 847.381 40.5074 844.719 39.0708L840.919 46.111C842.314 46.8638 843.37 47.8821 844.155 49.212L851.045 45.146ZM844.785 39.1076C842.11 37.5976 839.113 36.9006 835.913 36.9006V44.9006C837.928 44.9006 839.535 45.3304 840.853 46.0742L844.785 39.1076ZM835.913 36.9006C832.647 36.9006 829.587 37.6443 826.834 39.2112L830.792 46.1638C832.225 45.3482 833.898 44.9006 835.913 44.9006V36.9006ZM826.875 39.1883C824.176 40.6832 822.003 42.7685 820.414 45.4028L827.264 49.5347C828.122 48.1122 829.265 47.01 830.751 46.1867L826.875 39.1883ZM820.428 45.3785C818.806 48.0259 817.989 50.9933 817.908 54.1772L825.906 54.3796C825.954 52.4764 826.425 50.904 827.249 49.559L820.428 45.3785ZM817.907 54.2784V68.2358H825.907V54.2784H817.907ZM817.907 68.2358C817.907 71.794 818.61 75.1047 820.147 78.0531L827.241 74.356C826.395 72.7324 825.907 70.7307 825.907 68.2358H817.907ZM820.158 78.0738C821.699 80.9895 823.922 83.3024 826.775 84.9386L830.755 77.9989C829.229 77.1237 828.072 75.9272 827.23 74.3353L820.158 78.0738ZM826.775 84.9386C829.68 86.6049 833.003 87.3523 836.589 87.3523V79.3523C834.121 79.3523 832.228 78.844 830.755 77.9989L826.775 84.9386ZM836.589 87.3523C839.05 87.3523 841.393 87.0113 843.574 86.2705L841.001 78.6954C839.77 79.1137 838.313 79.3523 836.589 79.3523V87.3523ZM843.574 86.2705C845.764 85.5267 847.725 84.401 849.392 82.8655L843.973 76.9811C843.193 77.6994 842.224 78.2802 841.001 78.6954L843.574 86.2705ZM849.392 82.8655C851.104 81.2894 852.364 79.3657 853.184 77.1663L845.687 74.3735C845.283 75.4582 844.708 76.3035 843.973 76.9811L849.392 82.8655ZM849.32 79.7682L871.004 80.396L871.236 72.3994L849.551 71.7716L849.32 79.7682ZM867.187 75.6684C866.407 79.8771 864.716 83.4625 862.129 86.512L868.23 91.6869C871.761 87.5242 874.03 82.6419 875.053 77.127L867.187 75.6684ZM862.127 86.5144C859.573 89.5311 856.156 91.9611 851.748 93.7474L854.753 101.162C860.197 98.9556 864.734 95.8155 868.232 91.6844L862.127 86.5144ZM851.769 93.739C847.406 95.4787 842.227 96.4006 836.154 96.4006V104.401C843.024 104.401 849.243 103.358 854.732 101.17L851.769 93.739Z" fill="white" mask="url(#path-1-outside-1_1_1422)"/>
</g>
</svg>
