<svg width="115" height="25" viewBox="0 0 115 25" fill="none" xmlns="http://www.w3.org/2000/svg">
<path fill-rule="evenodd" clip-rule="evenodd" d="M74.4321 0.0159091L83.0253 24.2605L86 24.2614V24.4355H76.5319V24.2614H79.3195L76.4937 16.2886H70.7579V16.2918L70.7886 16.3845C71.0175 17.0882 71.1313 17.8255 71.1243 18.5677V21.5564C71.1243 23.0936 71.7808 24.6518 73.0344 24.6518C73.7703 24.6518 74.3578 24.3836 75.0573 23.7218L75.1571 23.8177C74.3974 24.6473 73.4773 25 72.0976 25C71.0562 25 70.1651 24.7409 69.448 24.2305L69.3123 24.1295C68.3684 23.3914 67.7559 22.185 67.4923 20.5432L67.4501 20.2782L67.4062 19.8773L67.4018 19.8082L65.8204 24.2591H68.0644V24.4336H63.3695V24.2591H65.6376L67.3737 19.3714V19.3609C67.355 19.0725 67.3441 18.7836 67.3407 18.4945V16.3614C67.3407 13.7386 65.4557 12.2341 62.1686 12.2341H58.9377V24.2605H61.7371V24.4345H50.7962V24.2605H53.5842L50.7584 16.2877H42.9165L40.1172 24.1723L40.234 24.1523C43.91 23.4968 45.6004 20.5945 45.6232 17.5386H45.7937V24.4345H28L41.2082 0.993182H35.8968C31.4949 0.993182 29.5027 4.51 29.472 8.01591H29.3019V0.818182H45.3345L45.237 0.993182L32.1285 24.2605H39.0248C39.1962 24.2605 39.3667 24.2518 39.5385 24.2377C39.6527 24.2295 39.7678 24.2177 39.8847 24.2027L39.9265 24.1982L48.521 0H48.6911L48.6968 0.0159091L55.4498 19.0686V0.993182H52.6693V0.815909H62.2385C66.8376 0.815909 70.0482 3.25773 70.0482 6.75591C70.0482 9.30682 67.8491 11.4241 64.5778 12.0264L63.9771 12.1055L64.5822 12.1691C66.566 12.4041 68.1413 13.0355 69.2578 14.045L69.2652 14.0523L74.2563 0H74.4259L74.4321 0.0159091ZM70.6744 16.0705L70.6911 16.1132H76.43L72.5752 5.23682L69.4023 14.1777L69.4195 14.1945L69.5807 14.36C70.0475 14.8525 70.4188 15.4334 70.6744 16.0705ZM58.9399 12.0591V0.993182H61.4054C64.6991 0.993182 66.4382 2.99955 66.4382 6.79318C66.4382 10.8282 65.4399 12.0591 62.1686 12.0591H58.9399ZM46.8421 5.23682L42.9789 16.1136H50.6969L46.8421 5.23682Z" fill="white"/>
</svg>
