<svg width="20" height="20" viewBox="0 0 20 20" fill="none" xmlns="http://www.w3.org/2000/svg">
<g clip-path="url(#clip0_622_853)">
<path d="M10 20C15.5228 20 20 15.5228 20 10C20 4.47715 15.5228 0 10 0C4.47715 0 0 4.47715 0 10C0 15.5228 4.47715 20 10 20Z" fill="#E21A20"/>
<path fill-rule="evenodd" clip-rule="evenodd" d="M15.4085 8.42522C15.3319 7.37053 15.1397 6.28147 13.7913 6.20178C11.2647 6.05774 8.73196 6.05774 6.20537 6.20178C4.85693 6.2799 4.66474 7.37053 4.58818 8.42522C4.50967 9.47375 4.50967 10.5267 4.58818 11.5752C4.66474 12.6299 4.85693 13.719 6.20537 13.7987C8.73196 13.9427 11.2647 13.9427 13.7913 13.7987C15.1397 13.7205 15.3319 12.6299 15.4085 11.5752C15.487 10.5267 15.487 9.47375 15.4085 8.42522ZM8.90537 11.4065V8.28147L11.8741 9.84397L8.90537 11.4065Z" fill="white"/>
</g>
<defs>
<clipPath id="clip0_622_853">
<rect width="20" height="20" fill="white"/>
</clipPath>
</defs>
</svg>
