<svg width="32" height="40" viewBox="0 0 32 40" fill="none" xmlns="http://www.w3.org/2000/svg">
<path d="M23.5222 0.516334C26.2142 0.516334 28.9065 0.515941 31.5984 0.516726C31.6 1.12296 31.5953 1.72958 31.6012 2.33621C30.9172 2.36605 30.2179 2.44262 29.5881 2.72885C28.9493 3.01587 28.4137 3.53808 28.1381 4.18475C24.8647 11.8797 21.5936 19.5754 18.3237 27.2719C18.2672 27.3983 18.2216 27.529 18.1557 27.6512C16.9848 27.6374 15.8136 27.6492 14.6427 27.6449C14.126 26.6181 13.6176 25.5871 13.0965 24.5627C12.4993 26.1631 11.8986 27.7619 11.3014 29.3619C15.1638 29.3623 19.0261 29.3619 22.8885 29.3623C23.5957 29.3717 24.324 29.3422 24.9856 29.0658C26.085 28.6241 26.9602 27.7705 27.6724 26.8451C28.5323 25.7237 29.1849 24.4614 29.7664 23.1786C30.4185 23.1731 31.0703 23.1806 31.7221 23.1794C30.4861 25.8195 29.2438 28.4572 27.9967 31.0922C19.0964 31.0926 10.1965 31.0922 1.29618 31.0922C1.51292 30.5264 1.71905 29.9559 1.95149 29.396C1.96563 29.3383 2.03748 29.3528 2.08106 29.3473C3.19223 29.3391 4.31085 29.2959 5.40121 29.0646C5.96857 28.9315 6.55557 28.7541 6.99218 28.3489C7.22305 28.1286 7.2949 27.807 7.37147 27.5102C8.42256 24.6973 9.47522 21.8849 10.5271 19.0724C8.30398 14.3356 6.07341 9.60158 3.84911 4.86519C3.67007 4.45096 3.4337 4.04065 3.06187 3.77091C2.2923 3.19452 1.29225 3.12149 0.365627 3.08458C0.364842 2.40571 0.365627 1.72723 0.365234 1.04836C3.49024 1.04718 6.61485 1.04757 9.73986 1.04797C9.74025 1.72684 9.74065 2.40571 9.73947 3.08458C9.3323 3.11049 8.90001 3.10382 8.53132 3.30524C8.34835 3.39162 8.24077 3.60914 8.28789 3.80703C8.3456 4.13096 8.6016 4.36222 8.73117 4.65474C10.0508 7.49704 11.3705 10.3397 12.6941 13.1809C13.3572 11.3264 14.0204 9.47241 14.6863 7.61916C14.7841 7.36158 14.8186 7.06396 14.7071 6.80482C14.6196 6.60026 14.4209 6.47383 14.225 6.38863C13.8441 6.23157 13.4256 6.23314 13.0219 6.20409C13.2281 5.63123 13.4354 5.05837 13.649 4.48865C13.6984 4.45685 13.7671 4.48119 13.8241 4.47334C16.9946 4.4753 20.1656 4.47334 23.3365 4.47452C23.1174 5.05012 22.8995 5.62573 22.6828 6.20212C21.9191 6.23746 21.1319 6.2567 20.4157 6.55511C20.0874 6.69253 19.7769 6.90259 19.5829 7.20649C19.4482 7.42912 19.3646 7.67766 19.2743 7.92031C17.9495 11.5334 16.6126 15.1417 15.3028 18.7603C16.0284 20.4003 16.7846 22.0262 17.5247 23.6596C20.2123 17.313 22.8991 10.9656 25.5899 4.62019C25.7713 4.23854 26.0665 3.89027 26.0897 3.4513C26.1121 3.10774 25.8573 2.8113 25.562 2.67035C24.9255 2.37665 24.2101 2.36212 23.5222 2.33739C23.5215 1.73037 23.5215 1.12335 23.5222 0.516334Z" fill="white"/>
<path d="M28.4089 34.6892C29.2574 35.5679 30.0992 36.4525 30.9395 37.3387C30.9383 36.515 30.943 35.6908 30.9422 34.8671C31.0875 34.8675 31.2328 34.8659 31.3784 34.8639C31.3788 36.0399 31.3788 37.2162 31.3784 38.3922C30.5291 37.5178 29.6924 36.6316 28.8475 35.7529C28.8487 36.5817 28.8455 37.411 28.8451 38.2402C28.6995 38.2414 28.5542 38.241 28.4089 38.241C28.4085 37.0568 28.4081 35.873 28.4089 34.6892Z" fill="white"/>
<path d="M3.70851 34.8101C4.64338 34.6664 5.63244 35.3983 5.71568 36.3516C5.79421 36.897 5.58257 37.4655 5.18326 37.8413C4.52677 38.4836 3.34611 38.4719 2.70886 37.8067C2.36451 37.473 2.16819 36.992 2.189 36.5118C2.19843 35.6763 2.88908 34.9299 3.70851 34.8101ZM3.70891 35.242C3.16471 35.3308 2.72181 35.8086 2.64564 36.35C2.54199 36.9653 2.92167 37.6273 3.51573 37.8283C4.03558 38.0246 4.66812 37.8397 5.00186 37.396C5.43337 36.8546 5.36034 35.981 4.82949 35.5314C4.53109 35.2601 4.09958 35.1706 3.70891 35.242Z" fill="white"/>
<path d="M10.4604 34.9919C10.9395 34.6323 11.722 34.7811 11.9984 35.3245C11.883 35.3897 11.7675 35.4553 11.6521 35.5204C11.4444 35.1957 10.9383 35.1164 10.6591 35.392C10.5409 35.4784 10.5539 35.6366 10.5665 35.7666C10.6002 35.9362 10.7808 36.0081 10.9139 36.0878C11.2571 36.2684 11.6694 36.3725 11.9105 36.6999C12.1794 37.0655 12.135 37.6097 11.8417 37.9481C11.5351 38.3192 10.9744 38.4095 10.5456 38.2151C10.2166 38.0526 10.0132 37.709 9.94727 37.3568C10.0945 37.3219 10.2425 37.2897 10.3902 37.2567C10.4051 37.5779 10.6544 37.9026 10.9936 37.9085C11.4515 37.9583 11.8154 37.3631 11.5488 36.9834C11.2642 36.5959 10.7153 36.5904 10.3878 36.2554C10.0022 35.9402 10.0411 35.2605 10.4604 34.9919Z" fill="white"/>
<path d="M26.089 34.8078C26.7015 34.7312 27.3344 35.0139 27.7106 35.4984C28.2528 36.1769 28.166 37.2594 27.5225 37.8429C27.155 38.2061 26.6147 38.3557 26.1074 38.3019C25.606 38.2689 25.1368 37.9878 24.8475 37.581C24.5357 37.1471 24.4548 36.5672 24.6025 36.0572C24.7952 35.3963 25.4101 34.8942 26.089 34.8078ZM26.014 35.2479C25.3387 35.363 24.8557 36.0823 24.9743 36.7513C25.0493 37.3949 25.6598 37.9187 26.3057 37.9065C26.7463 37.9139 27.1664 37.6642 27.4039 37.2991C27.7648 36.7761 27.6697 36.0034 27.2049 35.573C26.9006 35.2648 26.4306 35.1608 26.014 35.2479Z" fill="white"/>
<path d="M0.716797 34.8647C0.856183 34.8639 0.99557 34.8639 1.13496 34.8647C1.13535 35.8616 1.13456 36.8589 1.13535 37.8558C1.48166 37.8566 1.82757 37.8558 2.17388 37.8562C2.17466 37.9842 2.17466 38.1122 2.17427 38.2406C1.68818 38.241 1.20249 38.2414 0.716797 38.2406C0.71719 37.1153 0.71719 35.99 0.716797 34.8647Z" fill="white"/>
<path d="M6.05296 34.8674C6.20059 34.8662 6.34822 34.8666 6.49625 34.867C6.49743 35.5314 6.49429 36.1961 6.49782 36.8605C6.50449 37.1526 6.54062 37.4738 6.74714 37.6987C7.07578 38.0211 7.72128 37.9752 7.95058 37.5574C8.06641 37.3611 8.10018 37.1286 8.09703 36.904C8.09429 36.2252 8.09429 35.5463 8.09468 34.867C8.24231 34.8662 8.38994 34.8666 8.53757 34.867C8.53757 35.56 8.53914 36.253 8.53718 36.946C8.53797 37.2606 8.48339 37.5931 8.28236 37.846C7.85007 38.4447 6.84805 38.4789 6.37453 37.9131C6.14955 37.6775 6.05689 37.3454 6.05375 37.0258C6.05178 36.3064 6.05335 35.5867 6.05296 34.8674Z" fill="white"/>
<path d="M9.08438 34.8651C9.22965 34.8635 9.37532 34.8639 9.52099 34.8647C9.52099 35.99 9.52138 37.1153 9.5206 38.241C9.37532 38.241 9.22965 38.2414 9.08398 38.2402C9.08477 37.1153 9.08477 35.99 9.08438 34.8651Z" fill="white"/>
<path d="M13.457 34.8678C13.6168 34.8635 13.7774 34.8635 13.9376 34.8643C14.2729 35.6849 14.6031 36.5075 14.9326 37.3304C15.2612 36.5102 15.5993 35.6939 15.9204 34.8709C16.085 34.8572 16.2499 34.8666 16.4148 34.8643C15.9244 36.0583 15.432 37.2515 14.9373 38.4436C14.4339 37.2558 13.9486 36.0602 13.457 34.8678Z" fill="white"/>
<path d="M16.6137 34.8639C16.759 34.8659 16.9043 34.8674 17.05 34.867C17.0551 35.5212 17.0492 36.1757 17.0547 36.8298C17.0649 37.1404 17.0888 37.4926 17.326 37.7227C17.5996 37.9571 18.0355 37.9716 18.3276 37.7631C18.4976 37.6422 18.5911 37.4412 18.628 37.2409C18.6861 36.8962 18.6653 36.5456 18.6692 36.1977C18.6715 35.7544 18.6719 35.3111 18.6712 34.8678C18.8109 34.8662 18.9511 34.8666 19.0913 34.867C19.0976 35.4819 19.0925 36.0964 19.094 36.7113C19.1038 37.0925 19.0917 37.5063 18.8596 37.8283C18.4532 38.4145 17.518 38.4777 17.0036 38.0015C16.7464 37.7635 16.6173 37.4125 16.6153 37.0662C16.6114 36.332 16.6145 35.5981 16.6137 34.8639Z" fill="white"/>
<path d="M19.6394 34.8671C19.7909 34.8675 19.9425 34.8659 20.0944 34.8643C20.0944 35.9896 20.0941 37.1149 20.0944 38.2406C19.9417 38.241 19.7894 38.241 19.637 38.2406C19.6355 37.1161 19.6406 35.9916 19.6394 34.8671Z" fill="white"/>
<path d="M20.3675 34.867C21.7288 34.8682 23.0896 34.8647 24.4509 34.8651C24.4505 34.9998 24.4505 35.1344 24.4509 35.2695C24.1898 35.2707 23.9291 35.2695 23.6684 35.2699C23.6672 36.2601 23.668 37.2504 23.668 38.2406C23.516 38.241 23.3645 38.241 23.2125 38.2406C23.2118 37.2504 23.2153 36.2601 23.211 35.2699C22.6766 35.2707 22.1422 35.2695 21.6078 35.2703C21.607 36.2605 21.6078 37.2504 21.6074 38.2406C21.468 38.241 21.3287 38.241 21.1897 38.2406C21.1893 37.2504 21.1901 36.2605 21.1893 35.2703C20.9152 35.2695 20.6415 35.2707 20.3675 35.2695C20.3671 35.1352 20.3671 35.0009 20.3675 34.867Z" fill="white"/>
</svg>
