<svg width="115" height="25" viewBox="0 0 115 25" fill="none" xmlns="http://www.w3.org/2000/svg">
<path d="M22.0413 8.03973H20.2615L18.9609 11.309L19.8508 13.7449L21.0145 16.95L24.5056 8.03973H22.0413Z" fill="white"/>
<path d="M13.4856 1.24487H14.6493L14.307 0.0269165H6.8457L7.39332 1.24487H8.96773L18.0719 24.3218L20.057 19.3218L13.4856 1.24487Z" fill="white"/>
<path d="M21.7688 0.0269165L21.4265 1.24487H22.9325L20.8789 6.50128H25.123L27.1765 1.24487H28.6825L29.1616 0.0269165H21.7688Z" fill="white"/>
<path d="M55.8796 8.77307H55.7427V8.90128C55.7427 8.96538 55.7427 12.8115 55.7427 14.2859L52.7307 8.96538L52.5254 8.51666V18.0038H53.6206V12.5551C54.3052 13.7731 56.1534 16.9782 56.5641 17.6833L56.8379 18.132V8.77307H55.8796Z" fill="white"/>
<path d="M108.383 8.77307H107.493V8.90128C107.493 8.96538 107.493 12.8115 107.493 14.2859L104.481 8.96538L104.207 8.51666V18.0038H105.302V12.5551C105.987 13.7731 107.835 16.9782 108.246 17.6833L108.52 18.132V8.77307H108.383Z" fill="white"/>
<path d="M90.7217 13.0038C89.9002 12.491 89.2157 12.0423 89.2157 11.1449C89.1473 10.5038 89.6264 9.92692 90.311 9.86282H90.3794C90.8586 9.86282 91.3377 10.1192 91.6116 10.5038L91.8169 10.7603V9.28589L91.7485 9.22179C91.3377 8.90128 90.7901 8.77307 90.2425 8.77307C89.558 8.77307 88.9419 9.02948 88.5997 9.5423C88.1889 9.99102 87.9836 10.632 88.052 11.209C88.1205 12.2346 88.7366 13.132 89.6949 13.6449L89.8318 13.7731C90.5848 14.2218 91.2008 14.6705 91.2008 15.5679C91.2008 15.9526 91.0639 16.3372 90.7901 16.6577C90.5848 16.85 90.2425 16.9782 89.9687 16.9782C89.4211 16.9141 88.9419 16.7218 88.5997 16.3372L88.3943 16.0808V17.491L88.4627 17.5551C88.9419 17.8756 89.4211 18.0038 90.0372 18.0038C90.7217 18.0038 91.4062 17.6833 91.8169 17.2346C92.2276 16.7218 92.5014 16.0808 92.433 15.4397C92.3645 14.0295 91.4747 13.5167 90.7217 13.0038Z" fill="white"/>
<path d="M83.0553 8.77307H82.9184V14.9269C82.9184 16.4654 82.7815 16.9782 81.96 16.9782C81.1386 16.9782 81.0017 16.4654 81.0017 14.9269V8.77307H79.9065V14.9269C79.838 15.632 79.9749 16.3372 80.1803 17.0423C80.5226 17.6833 81.2071 18.0679 81.96 18.0038C83.8767 18.0038 84.0136 16.5936 84.0136 14.9269V8.77307H83.0553Z" fill="white"/>
<path d="M72.3774 8.77307H72.2405V18.0038H75.4577V16.9782H73.4042V13.709H75.3893V12.6833H73.4042V9.79871H75.4577V8.77307H72.3774Z" fill="white"/>
<path d="M96.883 8.77307H96.7461V18.0038H99.9634V16.9782H97.9098V13.709H99.8949V12.6833H97.9098V9.79871H99.9634V8.77307H96.883Z" fill="white"/>
<path d="M66.1484 5.82434H66.0115V10.5679H63.0681V5.82434H61.8359V18.0038H63.0681V11.85H66.0115V18.0038H67.2437V5.82434H66.1484Z" fill="white"/>
<path d="M46.1597 8.96534L46.0228 8.45251L45.8859 8.96534L43.627 17.8756V18.0038H43.7639H44.7906H44.9275V17.8756L45.2698 16.0807H46.9127L47.2549 17.8756V18.0038H47.3918H48.4186H48.5555L48.4871 17.8756L46.1597 8.96534ZM46.7073 15.2474H45.4752L46.0912 12.5551L46.7073 15.2474Z" fill="white"/>
<path d="M39.794 5.82434H39.7255V5.95255C39.5886 6.20896 38.3565 11.9782 38.0142 13.9654L36.2345 5.95255V5.82434H36.0976H34.8654H34.7285V5.95255L37.8089 18.0038L37.9458 18.5166L38.0827 18.0038L41.0946 5.95255L41.163 5.82434H40.9577H39.794Z" fill="white"/>
</svg>
