<svg width="18" height="18" viewBox="0 0 18 18" fill="none" xmlns="http://www.w3.org/2000/svg">
<path d="M8.97435 15.3489H3.25596C2.90523 15.3489 2.6206 15.0644 2.6206 14.7139V3.28392C2.6206 2.9334 2.90526 2.64894 3.25596 2.64894H8.97435C9.3257 2.64894 9.6097 2.3651 9.6097 2.01395C9.6097 1.6628 9.3257 1.37891 8.97435 1.37891H3.25596C2.20506 1.37891 1.34985 2.23364 1.34985 3.28392V14.7139C1.34985 15.7642 2.20506 16.6189 3.25596 16.6189H8.97435C9.3257 16.6189 9.6097 16.3351 9.6097 15.9839C9.6097 15.6328 9.3257 15.3489 8.97435 15.3489Z" fill="white"/>
<path d="M16.461 8.5436L12.598 4.73359C12.3489 4.48721 11.9461 4.4904 11.6996 4.73995C11.453 4.98951 11.4556 5.39146 11.7059 5.63784L14.4666 8.36071H7.06895C6.7176 8.36071 6.43359 8.64454 6.43359 8.99569C6.43359 9.34685 6.7176 9.63071 7.06895 9.63071H14.4666L11.7059 12.3536C11.4556 12.6 11.4537 13.0019 11.6996 13.2515C11.7587 13.3114 11.8291 13.359 11.9067 13.3915C11.9844 13.424 12.0678 13.4407 12.1519 13.4407C12.3133 13.4407 12.4747 13.3797 12.598 13.2578L16.461 9.44779C16.521 9.38868 16.5685 9.31829 16.601 9.24068C16.6335 9.16307 16.6503 9.0798 16.6504 8.99567C16.6504 8.82556 16.5824 8.66363 16.461 8.5436Z" fill="white"/>
</svg>
